<svg xmlns="http://www.w3.org/2000/svg" viewBox="0 0 512 512" role="img" aria-label="Altair icon - Frosted Vault">
  <defs>
    <linearGradient id="bg" x1="0%" y1="0%" x2="0%" y2="100%">
      <stop offset="0%" stop-color="#181818"/>
      <stop offset="100%" stop-color="#0A0A0A"/>
    </linearGradient>
    <linearGradient id="glass" x1="0%" y1="0%" x2="0%" y2="55%">
      <stop offset="0%" stop-color="#FFFFFF" stop-opacity="0.14"/>
      <stop offset="100%" stop-color="#FFFFFF" stop-opacity="0"/>
    </linearGradient>
    <linearGradient id="gold" x1="0%" y1="0%" x2="0%" y2="100%">
      <stop offset="0%" stop-color="#F5E6A3"/>
      <stop offset="42%" stop-color="#D4AF37"/>
      <stop offset="100%" stop-color="#9A7209"/>
    </linearGradient>
    <filter id="float" x="-25%" y="-25%" width="150%" height="150%">
      <feDropShadow dx="0" dy="6" stdDeviation="8" flood-color="#000000" flood-opacity="0.55"/>
      <feDropShadow dx="0" dy="2" stdDeviation="3" flood-color="#D4AF37" flood-opacity="0.12"/>
    </filter>
  </defs>
  <rect width="512" height="512" rx="112" fill="url(#bg)"/>
  <rect width="512" height="512" rx="112" fill="url(#glass)"/>
  <rect x="24" y="24" width="464" height="464" rx="96" fill="#FFFFFF" opacity="0.02"/>
  <g filter="url(#float)" transform="translate(256 256) scale(5.5) translate(-40 -32)">
    <path fill="url(#gold)" d="M37.5 2h5v20H37.5z M37.5 42h5v20H37.5z M40 29.5h25v5H40z M40 14.5l3.75 11.875 11.875 3.125-11.875 3.125-3.75 11.875-3.75-11.875-11.875-3.125 11.875-3.125z"/>
  </g>
</svg>
