<svg xmlns="http://www.w3.org/2000/svg" viewBox="0 0 512 512" role="img" aria-label="Altair icon - Carbon Depth">
  <defs>
    <linearGradient id="bg" x1="0%" y1="0%" x2="0%" y2="100%">
      <stop offset="0%" stop-color="#161616"/>
      <stop offset="100%" stop-color="#0A0A0A"/>
    </linearGradient>
    <pattern id="weave" width="8" height="8" patternUnits="userSpaceOnUse">
      <rect width="8" height="8" fill="#0A0A0A"/>
      <path d="M0 0h4v4H0z M4 4h4v4H4z" fill="#111111"/>
    </pattern>
    <linearGradient id="gold" x1="0%" y1="0%" x2="0%" y2="100%">
      <stop offset="0%" stop-color="#FBF5B7"/>
      <stop offset="40%" stop-color="#D4AF37"/>
      <stop offset="100%" stop-color="#B8860B"/>
    </linearGradient>
    <filter id="emboss" x="-20%" y="-20%" width="140%" height="140%">
      <feDropShadow dx="0" dy="3" stdDeviation="2" flood-color="#000000" flood-opacity="0.6"/>
      <feDropShadow dx="0" dy="-1" stdDeviation="0.5" flood-color="#FFFFFF" flood-opacity="0.08"/>
    </filter>
  </defs>
  <rect width="512" height="512" rx="112" fill="url(#bg)"/>
  <rect width="512" height="512" rx="112" fill="url(#weave)" opacity="0.35"/>
  <rect width="512" height="512" rx="112" fill="url(#bg)" opacity="0.55"/>
  <g filter="url(#emboss)" transform="translate(256 256) scale(5.5) translate(-40 -32)">
    <path fill="url(#gold)" d="M37.5 2h5v20H37.5z M37.5 42h5v20H37.5z M40 29.5h25v5H40z M40 14.5l3.75 11.875 11.875 3.125-11.875 3.125-3.75 11.875-3.75-11.875-11.875-3.125 11.875-3.125z"/>
  </g>
</svg>
