<svg xmlns="http://www.w3.org/2000/svg" viewBox="0 0 512 512" role="img" aria-label="Altair icon - Command Center">
  <defs>
    <linearGradient id="bg" x1="0%" y1="0%" x2="0%" y2="100%">
      <stop offset="0%" stop-color="#0E1018"/>
      <stop offset="100%" stop-color="#060608"/>
    </linearGradient>
    <pattern id="grid" width="32" height="32" patternUnits="userSpaceOnUse">
      <path d="M32 0H0V32" fill="none" stroke="#FFFFFF" stroke-opacity="0.04" stroke-width="0.5"/>
    </pattern>
    <radialGradient id="vignette" cx="50%" cy="50%" r="70%">
      <stop offset="0%" stop-color="#000000" stop-opacity="0"/>
      <stop offset="100%" stop-color="#000000" stop-opacity="0.45"/>
    </radialGradient>
    <linearGradient id="gold" x1="0%" y1="0%" x2="0%" y2="100%">
      <stop offset="0%" stop-color="#F5E6A3"/>
      <stop offset="42%" stop-color="#D4AF37"/>
      <stop offset="100%" stop-color="#9A7209"/>
    </linearGradient>
    <linearGradient id="spec" x1="0%" y1="0%" x2="100%" y2="100%">
      <stop offset="0%" stop-color="#FFFFFF" stop-opacity="0.35"/>
      <stop offset="40%" stop-color="#FFFFFF" stop-opacity="0"/>
      <stop offset="100%" stop-color="#FFFFFF" stop-opacity="0"/>
    </linearGradient>
  </defs>
  <rect width="512" height="512" rx="112" fill="url(#bg)"/>
  <rect width="512" height="512" rx="112" fill="url(#grid)"/>
  <rect width="512" height="512" rx="112" fill="url(#vignette)"/>
  <g transform="translate(256 256) scale(5.5) translate(-40 -32)">
    <path fill="url(#gold)" d="M37.5 2h5v20H37.5z M37.5 42h5v20H37.5z M40 29.5h25v5H40z M40 14.5l3.75 11.875 11.875 3.125-11.875 3.125-3.75 11.875-3.75-11.875-11.875-3.125 11.875-3.125z"/>
    <path fill="url(#spec)" d="M37.5 2h5v20H37.5z M37.5 42h5v20H37.5z M40 29.5h25v5H40z M40 14.5l3.75 11.875 11.875 3.125-11.875 3.125-3.75 11.875-3.75-11.875-11.875-3.125 11.875-3.125z"/>
  </g>
</svg>
